<svg width="111" height="24" viewBox="0 0 111 24" fill="none" xmlns="http://www.w3.org/2000/svg">
<path d="M0.704 17.8332V1.03321H11.24V3.09721H3.248V8.40121H9.872V10.4412H3.248V17.8332H0.704ZM15.0793 3.67321C14.5993 3.67321 14.1993 3.52921 13.8793 3.24121C13.5753 2.93721 13.4233 2.56121 13.4233 2.11321C13.4233 1.66521 13.5753 1.29721 13.8793 1.00921C14.1993 0.705205 14.5993 0.553205 15.0793 0.553205C15.5593 0.553205 15.9513 0.705205 16.2553 1.00921C16.5753 1.29721 16.7353 1.66521 16.7353 2.11321C16.7353 2.56121 16.5753 2.93721 16.2553 3.24121C15.9513 3.52921 15.5593 3.67321 15.0793 3.67321ZM13.8073 17.8332V5.92921H16.3513V17.8332H13.8073ZM24.7016 17.8332C23.5336 17.8332 22.6056 17.5532 21.9176 16.9932C21.2296 16.4172 20.8856 15.4012 20.8856 13.9452V8.06521H18.8456V5.92921H20.8856L21.1976 2.90521H23.4296V5.92921H26.7896V8.06521H23.4296V13.9452C23.4296 14.6012 23.5656 15.0572 23.8376 15.3132C24.1256 15.5532 24.6136 15.6732 25.3016 15.6732H26.6696V17.8332H24.7016ZM32.9407 17.8572L28.4047 1.03321H31.1407L34.4767 14.9532L38.3167 1.03321H41.1247L44.8447 14.9532L48.1807 1.03321H50.9167L46.3087 17.8332H43.3327L39.6607 4.65721L35.8687 17.8332L32.9407 17.8572ZM57.4807 18.1212C56.3127 18.1212 55.2727 17.8652 54.3607 17.3532C53.4647 16.8252 52.7607 16.0972 52.2487 15.1692C51.7367 14.2412 51.4807 13.1612 51.4807 11.9292C51.4807 10.6812 51.7287 9.58521 52.2247 8.64121C52.7367 7.69721 53.4407 6.96121 54.3367 6.43321C55.2487 5.90521 56.3047 5.64121 57.5047 5.64121C58.6727 5.64121 59.6887 5.90521 60.5527 6.43321C61.4167 6.94521 62.0887 7.63321 62.5687 8.49721C63.0487 9.36121 63.2887 10.3132 63.2887 11.3532C63.2887 11.5132 63.2807 11.6892 63.2647 11.8812C63.2647 12.0572 63.2567 12.2572 63.2407 12.4812H53.9767C54.0567 13.6332 54.4327 14.5132 55.1047 15.1212C55.7927 15.7132 56.5847 16.0092 57.4807 16.0092C58.2007 16.0092 58.8007 15.8492 59.2807 15.5292C59.7767 15.1932 60.1447 14.7452 60.3847 14.1852H62.9287C62.6087 15.3052 61.9687 16.2412 61.0087 16.9932C60.0647 17.7452 58.8887 18.1212 57.4807 18.1212ZM57.4807 7.72921C56.6327 7.72921 55.8807 7.98521 55.2247 8.49721C54.5687 8.99321 54.1687 9.74521 54.0247 10.7532H60.7447C60.6967 9.82521 60.3687 9.08921 59.7607 8.54521C59.1527 8.00121 58.3927 7.72921 57.4807 7.72921ZM65.9283 17.8332V0.553205H68.4723V17.8332H65.9283ZM71.6939 17.8332V0.553205H74.2379V17.8332H71.6939ZM78.4676 17.9772C77.9876 17.9772 77.5876 17.8252 77.2676 17.5212C76.9636 17.2012 76.8116 16.8252 76.8116 16.3932C76.8116 15.9452 76.9636 15.5692 77.2676 15.2652C77.5876 14.9452 77.9876 14.7852 78.4676 14.7852C78.9476 14.7852 79.3396 14.9452 79.6436 15.2652C79.9476 15.5692 80.0996 15.9452 80.0996 16.3932C80.0996 16.8252 79.9476 17.2012 79.6436 17.5212C79.3396 17.8252 78.9476 17.9772 78.4676 17.9772ZM82.7587 17.8332V1.03321H85.3027L93.7267 13.6812V1.03321H96.2707V17.8332H93.7267L85.3027 5.18521V17.8332H82.7587ZM104.457 14.1852C103.833 14.1852 103.257 14.1132 102.729 13.9692L101.697 14.9772C101.873 15.0892 102.089 15.1852 102.345 15.2652C102.601 15.3452 102.961 15.4172 103.425 15.4812C103.889 15.5452 104.521 15.6092 105.321 15.6732C106.905 15.8172 108.049 16.2012 108.753 16.8252C109.457 17.4332 109.809 18.2492 109.809 19.2732C109.809 19.9772 109.617 20.6412 109.233 21.2652C108.865 21.9052 108.281 22.4172 107.481 22.8012C106.697 23.2012 105.689 23.4012 104.457 23.4012C102.793 23.4012 101.441 23.0812 100.401 22.4412C99.3766 21.8172 98.8646 20.8652 98.8646 19.5852C98.8646 19.0892 98.9926 18.5932 99.2486 18.0972C99.5206 17.6172 99.9446 17.1612 100.521 16.7292C100.185 16.5852 99.8886 16.4332 99.6326 16.2732C99.3926 16.0972 99.1766 15.9212 98.9846 15.7452V15.1692L101.049 13.0572C100.121 12.2572 99.6566 11.2092 99.6566 9.91321C99.6566 9.12921 99.8406 8.41721 100.209 7.77721C100.593 7.12121 101.145 6.60121 101.865 6.21721C102.585 5.83321 103.449 5.64121 104.457 5.64121C105.129 5.64121 105.753 5.73721 106.329 5.92921H110.769V7.60921L108.657 7.72921C109.041 8.38521 109.233 9.11321 109.233 9.91321C109.233 10.7132 109.041 11.4332 108.657 12.0732C108.289 12.7132 107.745 13.2252 107.025 13.6092C106.321 13.9932 105.465 14.1852 104.457 14.1852ZM104.457 12.1932C105.193 12.1932 105.785 12.0012 106.233 11.6172C106.697 11.2172 106.929 10.6572 106.929 9.93721C106.929 9.20121 106.697 8.64121 106.233 8.25721C105.785 7.87321 105.193 7.68121 104.457 7.68121C103.705 7.68121 103.097 7.87321 102.633 8.25721C102.185 8.64121 101.961 9.20121 101.961 9.93721C101.961 10.6572 102.185 11.2172 102.633 11.6172C103.097 12.0012 103.705 12.1932 104.457 12.1932ZM101.265 19.3452C101.265 20.0332 101.569 20.5452 102.177 20.8812C102.785 21.2332 103.545 21.4092 104.457 21.4092C105.337 21.4092 106.049 21.2172 106.593 20.8332C107.137 20.4652 107.409 19.9692 107.409 19.3452C107.409 18.8812 107.225 18.4812 106.857 18.1452C106.489 17.8252 105.793 17.6252 104.769 17.5452C104.001 17.4972 103.321 17.4252 102.729 17.3292C102.169 17.6332 101.785 17.9612 101.577 18.3132C101.369 18.6652 101.265 19.0092 101.265 19.3452Z" fill="black"/>
</svg>
